<svg viewBox="0 0 800 400" xmlns="http://www.w3.org/2000/svg">

    <text x="400" y="40" text-anchor="middle" font-size="24" fill="#2c3e50" font-weight="bold">Encapsulamento de Dados</text>
    

    <rect x="350" y="80" width="100" height="60" fill="#3498db" rx="5"/>
    <text x="400" y="115" text-anchor="middle" fill="white">Dados</text>
    

    <rect x="300" y="150" width="50" height="60" fill="#e74c3c" rx="5"/>
    <rect x="350" y="150" width="100" height="60" fill="#3498db" rx="5"/>
    <text x="325" y="185" text-anchor="middle" fill="white" font-size="12">TCP</text>
    <text x="400" y="185" text-anchor="middle" fill="white">Dados</text>
    

    <rect x="250" y="220" width="50" height="60" fill="#2ecc71" rx="5"/>
    <rect x="300" y="220" width="50" height="60" fill="#e74c3c" rx="5"/>
    <rect x="350" y="220" width="100" height="60" fill="#3498db" rx="5"/>
    <text x="275" y="255" text-anchor="middle" fill="white" font-size="12">IP</text>
    <text x="325" y="255" text-anchor="middle" fill="white" font-size="12">TCP</text>
    <text x="400" y="255" text-anchor="middle" fill="white">Dados</text>
    

    <rect x="200" y="290" width="50" height="60" fill="#9b59b6" rx="5"/>
    <rect x="250" y="290" width="50" height="60" fill="#2ecc71" rx="5"/>
    <rect x="300" y="290" width="50" height="60" fill="#e74c3c" rx="5"/>
    <rect x="350" y="290" width="100" height="60" fill="#3498db" rx="5"/>
    <rect x="450" y="290" width="50" height="60" fill="#9b59b6" rx="5"/>
    <text x="225" y="325" text-anchor="middle" fill="white" font-size="12">ETH</text>
    <text x="275" y="325" text-anchor="middle" fill="white" font-size="12">IP</text>
    <text x="325" y="325" text-anchor="middle" fill="white" font-size="12">TCP</text>
    <text x="400" y="325" text-anchor="middle" fill="white">Dados</text>
    <text x="475" y="325" text-anchor="middle" fill="white" font-size="12">FCS</text>
    

    <rect x="600" y="100" width="20" height="20" fill="#3498db" rx="3"/>
    <text x="630" y="115" fill="#2c3e50" font-size="14">Dados</text>
    
    <rect x="600" y="130" width="20" height="20" fill="#e74c3c" rx="3"/>
    <text x="630" y="145" fill="#2c3e50" font-size="14">Cabeçalho TCP</text>
    
    <rect x="600" y="160" width="20" height="20" fill="#2ecc71" rx="3"/>
    <text x="630" y="175" fill="#2c3e50" font-size="14">Cabeçalho IP</text>
    
    <rect x="600" y="190" width="20" height="20" fill="#9b59b6" rx="3"/>
    <text x="630" y="205" fill="#2c3e50" font-size="14">Frame Ethernet</text>
</svg>